# xmcd CD database file
#
# Track frame offsets:
#	150
#	21763
#	46582
#	74414
#	103331
#	131208
#	150537
#	174529
#	192408
#	214399
#	232871
#	265763
#	296297
#
# Disc length: 4268 seconds
#
# Revision: 0
# Processed by: cddbd v1.4PL0 Copyright (c) Steve Scherf et al.
# Submitted via: CDex 1.50beta10
#
DISCID=b910aa0d
DTITLE=Reuben Wilson - Groove grease (The Sweet life (1-6) - The Cisco kid (7-13))
DYEAR=1974
DGENRE=Jazz
TTITLE0=Inner city blues
TTITLE1=Cream puff
TTITLE2=Sugar
TTITLE3=I'll take you there
TTITLE4=The sweet life
TTITLE5=Never can say goodbye
TTITLE6=The Cisco kid
TTITLE7=The last tango in Paris
TTITLE8=Superfly
TTITLE9=We've only just begun
TTITLE10=Snaps
TTITLE11=Groove grease
TTITLE12=The look of love
EXTD=YEAR: 1974
EXTT0=
EXTT1=
EXTT2=
EXTT3=
EXTT4=
EXTT5=
EXTT6=
EXTT7=
EXTT8=
EXTT9=
EXTT10=
EXTT11=
EXTT12=
PLAYORDER=
